<svg width="8" height="8" viewBox="0 0 8 8" fill="none" xmlns="http://www.w3.org/2000/svg">
<path d="M7.99997 3.59192C7.99997 4.58527 7.64857 5.42746 6.95292 6.12569C6.25727 6.83112 5.41102 7.17663 4.42133 7.17663C3.43882 7.17663 2.59255 6.82392 1.89691 6.12569C1.20126 5.42746 0.849854 4.57807 0.849854 3.59192C0.849854 2.60576 1.20126 1.75637 1.89691 1.05814C2.59973 0.352713 3.43881 0 4.42849 0C5.41818 0 6.25726 0.352713 6.96007 1.05094C7.65572 1.75637 7.99997 2.59856 7.99997 3.59192ZM7.51948 3.59192C7.51948 2.73533 7.21826 2.00111 6.60867 1.38206C6.00625 0.77021 5.27476 0.460687 4.42133 0.460687C3.56791 0.460687 2.83639 0.77021 2.23397 1.38206C1.63156 1.99391 1.32318 2.73533 1.32318 3.59192C1.32318 4.4485 1.62438 5.18272 2.23397 5.80177C2.83639 6.41362 3.56791 6.72314 4.42133 6.72314C5.27476 6.72314 6.00625 6.42082 6.60867 5.80177C7.21826 5.18272 7.51948 4.4485 7.51948 3.59192ZM6.7306 5.41307H5.80545L4.43567 3.94463H3.76871V5.41307H3.0874V1.6196H4.37831C4.63648 1.6196 4.85162 1.6268 5.01657 1.65559C5.18152 1.67719 5.34647 1.72757 5.51141 1.81395C5.68353 1.90753 5.81262 2.0227 5.89151 2.15947C5.97757 2.29623 6.01344 2.46179 6.01344 2.66334C6.01344 2.92968 5.93454 3.15282 5.77676 3.33278C5.61898 3.51274 5.40384 3.6567 5.13132 3.75747L6.7306 5.41307ZM5.27476 2.70653C5.27476 2.60576 5.25323 2.51938 5.21737 2.4402C5.18152 2.36102 5.11698 2.29623 5.02375 2.24585C4.93769 2.19546 4.84445 2.16667 4.75122 2.15227C4.65799 2.13787 4.53607 2.13068 4.38546 2.13068H3.76871V3.41196H4.29225C4.46437 3.41196 4.6078 3.39756 4.73689 3.36877C4.8588 3.33998 4.96637 3.29679 5.03808 3.232C5.12414 3.16002 5.18152 3.08804 5.21737 3.00166C5.25323 2.93688 5.27476 2.8289 5.27476 2.70653Z" fill="#47093E"/>
</svg>
