<svg width="24" height="33" viewBox="0 0 24 33" fill="none" xmlns="http://www.w3.org/2000/svg">
<path d="M23.652 22.7498C23.652 24.3119 23.358 25.6939 22.7699 26.896C22.1818 28.0909 21.3858 29.0771 20.3889 29.8545C19.2056 30.7831 17.9147 31.4453 16.5019 31.8412C15.0891 32.2371 13.2962 32.4315 11.1232 32.4315H0V0.953613H9.28725C11.575 0.953613 13.289 1.03999 14.4221 1.20555C15.5624 1.37111 16.6453 1.73102 17.6852 2.26369C18.8327 2.87554 19.6718 3.64575 20.1953 4.60311C20.7117 5.55328 20.977 6.6906 20.977 8.01507C20.977 9.51231 20.5969 10.7792 19.8367 11.8301C19.0765 12.8811 18.0653 13.7233 16.8031 14.3567V14.5295C18.9259 14.9686 20.5969 15.8971 21.8161 17.3296C23.0424 18.7548 23.652 20.5616 23.652 22.7498ZM16.6382 8.56214C16.6382 7.80633 16.5091 7.15849 16.2581 6.64021C16.0071 6.12194 15.5983 5.69725 15.0389 5.37333C14.3791 4.99182 13.5759 4.76148 12.6364 4.6679C11.6969 4.57432 10.5279 4.53113 9.13665 4.53113H4.17389V13.6225H9.56695C10.8722 13.6225 11.9121 13.5577 12.6866 13.4209C13.454 13.2842 14.1711 13.0106 14.8381 12.5859C15.4979 12.1685 15.964 11.6214 16.2366 10.9448C16.5019 10.2681 16.6382 9.47632 16.6382 8.56214ZM19.3132 22.9154C19.3132 21.6485 19.1267 20.6408 18.7466 19.8922C18.3665 19.1435 17.6781 18.5101 16.6812 17.9918C16.0071 17.6391 15.1895 17.4088 14.2285 17.308C13.2675 17.2 12.0985 17.1496 10.7216 17.1496H4.17389V28.8611H9.69604C11.5248 28.8611 13.0165 28.7676 14.1855 28.5732C15.3473 28.3861 16.3083 28.0333 17.047 27.5295C17.8358 26.9752 18.4096 26.349 18.7753 25.6435C19.1339 24.9381 19.3132 24.0311 19.3132 22.9154Z" fill="#47093E"/>
</svg>
