<svg width="22" height="33" viewBox="0 0 22 33" fill="none" xmlns="http://www.w3.org/2000/svg">
<path d="M21.273 10.4697C21.273 11.8661 21.0291 13.1546 20.5486 14.3495C20.061 15.5372 19.3868 16.5738 18.5191 17.4448C17.4361 18.5317 16.1596 19.3451 14.6822 19.885C13.2049 20.432 11.3474 20.6984 9.10271 20.6984H4.92883V32.4315H0.754944V0.953613H9.26767C11.1538 0.953613 12.7459 1.11197 14.0511 1.4287C15.3564 1.74542 16.5182 2.2421 17.5294 2.91873C18.7199 3.72493 19.645 4.72548 20.2976 5.92039C20.9431 7.1153 21.273 8.63412 21.273 10.4697ZM16.9341 10.5704C16.9341 9.48351 16.7405 8.54055 16.3676 7.73434C15.9875 6.93534 15.4137 6.2731 14.6392 5.76923C13.9651 5.33014 13.1977 5.02061 12.3299 4.82626C11.4693 4.63911 10.3721 4.54553 9.05252 4.54553H4.92165V17.128H8.44292C10.1283 17.128 11.498 16.9769 12.5523 16.6745C13.6065 16.3722 14.4599 15.8899 15.1197 15.2277C15.7795 14.5511 16.2457 13.8384 16.5182 13.0898C16.7979 12.3412 16.9341 11.499 16.9341 10.5704Z" fill="#47093E"/>
</svg>
