<svg width="27" height="33" viewBox="0 0 27 33" fill="none" xmlns="http://www.w3.org/2000/svg">
<path d="M26.5343 30.1496C25.7598 30.4879 25.0642 30.8046 24.4402 31.0997C23.8163 31.3948 22.9987 31.7044 21.9875 32.0283C21.1269 32.2946 20.2018 32.525 19.1978 32.7193C18.1938 32.9065 17.0893 33.0072 15.8845 33.0072C13.6111 33.0072 11.5385 32.6833 9.68102 32.0427C7.82357 31.402 6.20279 30.3943 4.82584 29.0266C3.47757 27.6878 2.42334 25.989 1.67032 23.9231C0.910123 21.8572 0.530029 19.4602 0.530029 16.7249C0.530029 14.1335 0.895781 11.8157 1.62729 9.77137C2.35879 7.72708 3.40585 5.9995 4.78998 4.58865C6.1239 3.22099 7.73752 2.17724 9.62366 1.45742C11.517 0.737597 13.6111 0.377686 15.9132 0.377686C17.5985 0.377686 19.2767 0.586434 20.9548 0.989535C22.633 1.39983 24.4976 2.11966 26.5487 3.149V8.11578H26.2332C24.5048 6.66174 22.7908 5.6108 21.0911 4.94856C19.3914 4.28632 17.5698 3.9552 15.6406 3.9552C14.0485 3.9552 12.6214 4.21434 11.352 4.72541C10.0826 5.24369 8.94952 6.04269 7.95267 7.12242C6.9845 8.18056 6.23148 9.51943 5.68643 11.1318C5.14139 12.7442 4.87603 14.6086 4.87603 16.7249C4.87603 18.9419 5.17007 20.8422 5.77249 22.4331C6.36773 24.0311 7.14227 25.3267 8.08175 26.3273C9.06427 27.371 10.2117 28.1412 11.5241 28.6451C12.8365 29.149 14.2207 29.3937 15.6837 29.3937C17.6917 29.3937 19.5707 29.0482 21.3278 28.3572C23.0848 27.6662 24.7271 26.6296 26.2547 25.2476H26.5487V30.1496H26.5343Z" fill="#47093E"/>
</svg>
