<svg width="27" height="33" viewBox="0 0 27 33" fill="none" xmlns="http://www.w3.org/2000/svg">
<path d="M26.9698 0.953487L15.0505 27.443C14.57 28.5155 14.0107 29.3937 13.358 30.0847C12.7054 30.7758 11.9954 31.3084 11.2424 31.6899C10.5109 32.0426 9.8081 32.2802 9.12679 32.4025C8.44549 32.5177 7.79287 32.5825 7.1546 32.5825C6.59521 32.5825 5.9139 32.5537 5.11068 32.4961C4.30746 32.4385 3.79828 32.4026 3.56879 32.3954V28.4795H3.86282C4.07797 28.5083 4.42938 28.5515 4.91705 28.6163C5.40472 28.6811 5.97128 28.7099 6.60238 28.7099C6.88207 28.7099 7.27652 28.6883 7.7857 28.6451C8.28772 28.6019 8.73952 28.5011 9.13396 28.3499C9.58577 28.1772 10.0304 27.9109 10.4679 27.5437C10.9125 27.1766 11.2855 26.644 11.5938 25.9385L12.354 24.2686L0.685791 0.946289H5.29715L14.4625 19.5105L22.674 0.946289H26.9698V0.953487Z" fill="#47093E"/>
</svg>
